# xmcd
# 
# Track frame offsets:
#     150
#     37652
#     87427
#     135855
#     163859
#     199787
#     242814
# 
# Disc length: 3733
# 
# Revision: 0
# Processed by: cddbd v1.5.2PL0 Copyright (c) Steve Scherf et al.
# Submitted via: BonkEnc v1.0.8
# 
DISCID=500e9307
DTITLE=Various Artist - Linkup originalside trance&progressive
DYEAR=2008
DGENRE=
TTITLE0=SW a.k.a Shingo Oka - Visionary(original Mix)
TTITLE1=Kana - Link-up2 U
TTITLE2=Shime-G(From Double Orbit) - Kyoukaisen
TTITLE3=Masayoshi Minoshima - Soldier
TTITLE4=Yu-I - Urban life
TTITLE5=Taishi - Vertical Motion
TTITLE6=Blazen - Summer Light
EXTD=
EXTT0=
EXTT1=
EXTT2=
EXTT3=
EXTT4=
EXTT5=
EXTT6=
PLAYORDER=
